<?xml version="1.0" encoding="utf-8"?>
<!-- Generator: Adobe Illustrator 27.5.0, SVG Export Plug-In . SVG Version: 6.00 Build 0)  -->
<svg version="1.1" id="Layer_1" xmlns="http://www.w3.org/2000/svg" xmlns:xlink="http://www.w3.org/1999/xlink" x="0px" y="0px"
	 viewBox="0 0 125.9 130.1" style="enable-background:new 0 0 125.9 130.1;" xml:space="preserve">
<style type="text/css">
	.st0{fill:none;stroke:#FF6600;stroke-width:2.6564;stroke-miterlimit:10;}
	.st1{fill:none;}
	.st2{fill:#FF6600;stroke:#FF6600;stroke-width:0.8668;stroke-miterlimit:10;}
	.st3{fill:#FF6600;}
	.st4{fill:none;stroke:#FF6600;stroke-width:2.3247;stroke-miterlimit:10;}
</style>
<g>
	<circle class="st0" cx="62.9" cy="67.2" r="61.6"/>
	<g>
		<circle class="st1" cx="62.9" cy="61.6" r="61.6"/>
		<path class="st2" d="M31,101.2l0.8,0.6l-1.8,2.3l1.3,1l-0.5,0.7l-1.3-1l-4.3,5.5l-0.8-0.6l4.3-5.5l-1.1-0.9l0.5-0.7l1.1,0.9
			L31,101.2z"/>
		<path class="st2" d="M35.3,113.8l0.5,0.8c-0.5,0.3-1,0.5-1.5,0.6c-0.5,0.1-1,0.1-1.5,0c-0.5-0.1-1-0.3-1.5-0.6
			c-1.1-0.7-1.7-1.5-1.9-2.6c-0.2-1.1,0-2.1,0.5-3c0.5-0.9,1.2-1.5,2.2-1.8c1.2-0.5,2.3-0.3,3.4,0.3c1.1,0.7,1.8,1.7,2,3
			c0.1,0.9-0.1,1.8-0.6,2.7l-6.1-3.6c-0.5,0.8-0.6,1.6-0.4,2.4c0.2,0.8,0.6,1.4,1.3,1.8c0.3,0.2,0.7,0.3,1.1,0.4
			c0.4,0.1,0.8,0.1,1.1,0C34.3,114.3,34.8,114.1,35.3,113.8z M36.4,112c0.2-0.5,0.2-1,0.2-1.4s-0.2-0.8-0.5-1.2
			c-0.3-0.4-0.6-0.7-1-0.9c-0.7-0.4-1.4-0.5-2.1-0.4c-0.5,0.1-1.1,0.4-1.6,0.9L36.4,112z"/>
		<path class="st2" d="M47.8,113.3l-2.8,7.4l-0.9-0.3l0.5-1.3c-0.6,0.3-1.2,0.5-1.7,0.6c-0.6,0.1-1.2,0-1.8-0.2
			c-1-0.4-1.8-1.1-2.2-2.1c-0.5-1-0.5-2.1-0.1-3.2c0.4-1.1,1.1-1.8,2.1-2.3c1-0.5,2.1-0.5,3.1-0.1c0.6,0.2,1.1,0.6,1.5,1
			c0.4,0.4,0.7,1,0.9,1.6l0.5-1.4L47.8,113.3z M43.7,112.6c-0.5-0.2-1.1-0.2-1.6-0.2c-0.5,0.1-1,0.3-1.5,0.7s-0.8,0.8-1,1.3
			c-0.2,0.5-0.2,1.1-0.2,1.6c0.1,0.6,0.3,1.1,0.7,1.5c0.3,0.4,0.8,0.7,1.3,0.9c0.5,0.2,1.1,0.2,1.6,0.2c0.6-0.1,1-0.3,1.5-0.7
			c0.4-0.4,0.7-0.8,0.9-1.4c0.3-0.9,0.3-1.7,0-2.4S44.5,113,43.7,112.6z"/>
		<path class="st2" d="M49.7,114l1,0.1l-0.2,1.3c0.4-0.4,0.8-0.8,1.2-0.9c0.5-0.2,1.1-0.3,1.7-0.2c0.4,0.1,0.7,0.2,1,0.4
			c0.3,0.2,0.6,0.4,0.7,0.7c0.2,0.3,0.3,0.7,0.4,1.1c0.4-0.6,0.9-1,1.4-1.2c0.5-0.2,1.1-0.3,1.7-0.3c0.5,0.1,1,0.3,1.4,0.6
			c0.4,0.3,0.6,0.8,0.8,1.3c0.1,0.5,0.1,1.3,0,2.2l-0.6,4.2l-1-0.1l0.6-4.2c0.1-0.8,0.1-1.4,0.1-1.7s-0.2-0.6-0.5-0.8
			s-0.6-0.4-1-0.4c-0.5-0.1-0.9,0-1.4,0.2s-0.8,0.6-1,1c-0.3,0.5-0.5,1.2-0.6,2.3l-0.4,3l-1-0.1l0.6-4c0.1-0.9,0.2-1.6,0.1-1.9
			c-0.1-0.4-0.2-0.6-0.5-0.9c-0.3-0.2-0.6-0.4-1-0.4c-0.5-0.1-0.9,0-1.4,0.2c-0.4,0.2-0.8,0.6-1.1,1s-0.5,1.2-0.6,2.1l-0.5,3.3
			l-1-0.1L49.7,114z"/>
		<path class="st2" d="M66.2,113.6l-0.1-1l5.8-0.7l0.1,1l-2.4,0.3l1.1,9.5l-1.1,0.1l-1.1-9.5L66.2,113.6z"/>
		<path class="st2" d="M72.8,111.7l2-0.5c1.1-0.3,1.9-0.5,2.4-0.5c0.6,0,1.2,0.1,1.7,0.5c0.5,0.4,0.8,0.9,1,1.5
			c0.1,0.6,0.1,1.1,0,1.6c-0.2,0.5-0.4,0.9-0.9,1.3c-0.4,0.3-1.1,0.6-1.9,0.9l4.9,3.8l-1.3,0.3l-4.9-3.8l-0.6,0.2l1.2,4.8l-1,0.3
			L72.8,111.7z M74.1,112.5L75,116l1.8-0.4c0.7-0.2,1.2-0.4,1.5-0.6c0.3-0.2,0.5-0.5,0.6-0.8c0.1-0.3,0.1-0.7,0-1
			c-0.1-0.3-0.3-0.6-0.5-0.9s-0.6-0.4-0.9-0.4c-0.3,0-0.9,0-1.6,0.2L74.1,112.5z"/>
		<path class="st2" d="M84.7,107.7l9,7.5l-1,0.5l-3-2.5l-4.1,1.9l0,3.9l-1.1,0.5l0-11.7L84.7,107.7z M85.5,109.8l0,4.3l3.3-1.5
			L85.5,109.8z"/>
		<path class="st2" d="M89.4,105.3l1-0.7l4.5,1.9l-0.3-4.8l1-0.7l0.4,6l5.9,2.5l-1,0.7l-4.8-2l0.4,5.3l-1,0.7l-0.4-6.4L89.4,105.3z"
			/>
	</g>
	<g>
		<path class="st3" d="M62.9,12.8c4.9,0,8.9,4.1,8.9,9.2s-4,9.2-8.9,9.2s-8.9-4.1-8.9-9.2S58,12.8,62.9,12.8 M62.9,10.3
			c-6.3,0-11.3,5.2-11.3,11.7s5.1,11.7,11.3,11.7S74.3,28.5,74.3,22S69.2,10.3,62.9,10.3L62.9,10.3z"/>
	</g>
	<g>
		<polygon class="st4" points="58.3,51.1 66.2,51.1 88.5,51.1 88.5,59 66.1,59 66.1,59 66.2,59 65.7,108.3 65.7,110.1 57.8,110 
			58,95.8 58.3,59 37.4,59 37.4,51.1 		"/>
		<rect x="37.4" y="36.8" class="st4" width="51.1" height="7.9"/>
	</g>
</g>
</svg>
